<?xml version="1.0" encoding="UTF-8" standalone="no"?>
<!DOCTYPE svg PUBLIC "-//W3C//DTD SVG 1.1//EN" "http://www.w3.org/Graphics/SVG/1.1/DTD/svg11.dtd">
<svg width="100%" height="100%" viewBox="0 0 1241 405" version="1.1" xmlns="http://www.w3.org/2000/svg" xmlns:xlink="http://www.w3.org/1999/xlink" xml:space="preserve" xmlns:serif="http://www.serif.com/" style="fill-rule:evenodd;clip-rule:evenodd;stroke-linejoin:round;stroke-miterlimit:2;">
    <g transform="matrix(1,0,0,1,-873.548,-368.243)">
        <g>
            <g transform="matrix(0.888231,0,0,0.779246,212.42,123.722)">
                <rect x="744.32" y="313.792" width="1396.86" height="518.943" style="fill:rgb(254,209,7);"/>
            </g>
            <g transform="matrix(1.56332,0,0,1.56332,738.089,303.085)">
                <g transform="matrix(132.123,0,0,132.123,117.591,256.37)">
                    <path d="M0.29,-0L0.047,-0.641C0.042,-0.656 0.033,-0.669 0.022,-0.68C0.011,-0.691 -0.002,-0.697 -0.016,-0.7L0.142,-0.7C0.133,-0.698 0.125,-0.694 0.12,-0.689C0.114,-0.683 0.111,-0.676 0.11,-0.669C0.109,-0.662 0.109,-0.654 0.111,-0.645L0.323,-0.09L0.49,-0.543L0.452,-0.641C0.447,-0.656 0.439,-0.669 0.428,-0.68C0.416,-0.691 0.403,-0.697 0.39,-0.7L0.547,-0.7C0.534,-0.697 0.524,-0.691 0.519,-0.68C0.514,-0.669 0.513,-0.658 0.516,-0.645L0.729,-0.09L0.932,-0.641C0.937,-0.655 0.936,-0.668 0.931,-0.679C0.925,-0.69 0.915,-0.697 0.901,-0.7L1.002,-0.7C0.989,-0.697 0.976,-0.691 0.965,-0.68C0.954,-0.669 0.945,-0.657 0.94,-0.642L0.704,-0L0.696,-0L0.494,-0.532L0.298,-0L0.29,-0Z" style="fill-rule:nonzero;stroke:black;stroke-width:0.02px;"/>
                </g>
                <g transform="matrix(132.123,0,0,132.123,237.823,256.37)">
                    <path d="M0.258,-0.457C0.298,-0.457 0.335,-0.448 0.37,-0.429C0.404,-0.409 0.432,-0.384 0.453,-0.351L0.41,-0.33L0.095,-0.176C0.1,-0.136 0.112,-0.103 0.131,-0.077C0.15,-0.05 0.171,-0.032 0.196,-0.022C0.221,-0.012 0.247,-0.008 0.276,-0.009C0.305,-0.01 0.332,-0.016 0.357,-0.028C0.382,-0.039 0.405,-0.055 0.425,-0.076C0.445,-0.097 0.459,-0.12 0.467,-0.145L0.473,-0.14C0.462,-0.112 0.446,-0.088 0.427,-0.067C0.408,-0.046 0.387,-0.03 0.364,-0.019C0.341,-0.008 0.317,-0.001 0.291,0.002C0.265,0.005 0.24,0.005 0.215,-0C0.19,-0.005 0.167,-0.013 0.144,-0.026C0.121,-0.038 0.1,-0.053 0.084,-0.072C0.067,-0.091 0.053,-0.113 0.043,-0.14C0.032,-0.167 0.027,-0.195 0.027,-0.226C0.027,-0.268 0.037,-0.307 0.058,-0.342C0.079,-0.377 0.107,-0.405 0.142,-0.426C0.177,-0.447 0.216,-0.457 0.258,-0.457ZM0.094,-0.184L0.408,-0.337C0.383,-0.412 0.333,-0.449 0.258,-0.449C0.228,-0.449 0.202,-0.443 0.18,-0.43C0.157,-0.417 0.14,-0.4 0.128,-0.378C0.115,-0.356 0.106,-0.333 0.101,-0.308C0.095,-0.283 0.092,-0.255 0.092,-0.226C0.092,-0.211 0.093,-0.197 0.094,-0.184Z" style="fill-rule:nonzero;stroke:black;stroke-width:0.02px;"/>
                </g>
                <g transform="matrix(132.123,0,0,132.123,302.695,256.37)">
                    <path d="M0.426,-0L0.365,-0C0.334,-0 0.318,-0.02 0.318,-0.061L0.318,-0.084C0.306,-0.053 0.287,-0.031 0.262,-0.016C0.236,-0 0.207,0.007 0.175,0.007C0.142,0.007 0.114,0.002 0.09,-0.008C0.066,-0.018 0.048,-0.031 0.038,-0.047C0.027,-0.063 0.02,-0.081 0.019,-0.101C0.017,-0.12 0.02,-0.139 0.029,-0.159C0.037,-0.178 0.051,-0.195 0.07,-0.212C0.089,-0.229 0.111,-0.241 0.137,-0.25C0.147,-0.254 0.16,-0.258 0.175,-0.261C0.19,-0.264 0.204,-0.267 0.216,-0.27C0.228,-0.272 0.241,-0.275 0.254,-0.28C0.267,-0.284 0.277,-0.289 0.286,-0.294C0.295,-0.299 0.302,-0.307 0.308,-0.317C0.314,-0.327 0.317,-0.338 0.317,-0.351C0.314,-0.378 0.305,-0.401 0.291,-0.418C0.277,-0.435 0.261,-0.446 0.244,-0.449C0.226,-0.452 0.208,-0.45 0.191,-0.445C0.174,-0.44 0.159,-0.429 0.148,-0.412C0.136,-0.395 0.13,-0.375 0.13,-0.352C0.13,-0.344 0.126,-0.339 0.118,-0.338C0.11,-0.337 0.105,-0.342 0.104,-0.351C0.104,-0.354 0.105,-0.358 0.106,-0.363C0.112,-0.386 0.123,-0.405 0.14,-0.421C0.156,-0.437 0.174,-0.448 0.195,-0.455C0.216,-0.462 0.237,-0.464 0.26,-0.462C0.282,-0.46 0.302,-0.454 0.321,-0.444C0.339,-0.433 0.354,-0.418 0.366,-0.397C0.378,-0.376 0.384,-0.352 0.384,-0.325L0.384,-0.061C0.384,-0.045 0.388,-0.032 0.395,-0.021C0.402,-0.01 0.412,-0.003 0.426,-0ZM0.318,-0.119L0.318,-0.322C0.313,-0.309 0.303,-0.297 0.289,-0.286C0.275,-0.275 0.261,-0.267 0.247,-0.262C0.232,-0.256 0.215,-0.249 0.196,-0.242C0.176,-0.235 0.161,-0.228 0.15,-0.222C0.131,-0.211 0.115,-0.198 0.104,-0.181C0.093,-0.164 0.086,-0.146 0.085,-0.129C0.083,-0.112 0.085,-0.095 0.09,-0.078C0.094,-0.061 0.104,-0.046 0.117,-0.035C0.13,-0.024 0.146,-0.016 0.165,-0.011C0.183,-0.006 0.204,-0.006 0.229,-0.013C0.254,-0.02 0.275,-0.033 0.292,-0.053C0.309,-0.072 0.318,-0.094 0.318,-0.119Z" style="fill-rule:nonzero;stroke:black;stroke-width:0.02px;"/>
                </g>
                <g transform="matrix(132.123,0,0,132.123,361.358,256.37)">
                    <path d="M0.061,-0.625C0.061,-0.641 0.057,-0.655 0.051,-0.666C0.044,-0.677 0.033,-0.683 0.019,-0.686L0.057,-0.686C0.061,-0.686 0.067,-0.686 0.075,-0.687C0.083,-0.687 0.09,-0.688 0.095,-0.689C0.099,-0.69 0.105,-0.691 0.111,-0.693C0.117,-0.695 0.122,-0.697 0.127,-0.7L0.127,-0.061C0.127,-0.045 0.131,-0.032 0.138,-0.021C0.145,-0.01 0.155,-0.003 0.169,-0L0.019,-0C0.033,-0.003 0.044,-0.01 0.051,-0.021C0.057,-0.032 0.061,-0.045 0.061,-0.061L0.061,-0.625Z" style="fill-rule:nonzero;stroke:black;stroke-width:0.02px;"/>
                </g>
                <g transform="matrix(132.123,0,0,132.123,385.272,256.37)">
                    <path d="M0.054,-0.45L0.054,-0.555C0.054,-0.571 0.05,-0.585 0.044,-0.596C0.037,-0.607 0.026,-0.614 0.012,-0.617C0.015,-0.617 0.046,-0.616 0.05,-0.616C0.054,-0.616 0.06,-0.616 0.068,-0.617C0.076,-0.618 0.083,-0.619 0.088,-0.62C0.093,-0.62 0.098,-0.622 0.104,-0.624C0.11,-0.625 0.115,-0.627 0.12,-0.63L0.12,-0.45L0.244,-0.45L0.244,-0.442L0.12,-0.442L0.12,-0.155C0.12,-0.152 0.12,-0.146 0.12,-0.137C0.119,-0.127 0.119,-0.119 0.12,-0.115C0.12,-0.11 0.12,-0.102 0.121,-0.092C0.121,-0.082 0.122,-0.074 0.123,-0.069C0.124,-0.063 0.126,-0.056 0.128,-0.048C0.13,-0.04 0.133,-0.034 0.137,-0.029C0.14,-0.024 0.145,-0.019 0.15,-0.014C0.155,-0.009 0.161,-0.006 0.168,-0.004C0.175,-0.001 0.183,-0 0.192,-0C0.206,-0 0.218,-0.004 0.229,-0.011C0.239,-0.018 0.245,-0.028 0.247,-0.041C0.248,-0.054 0.242,-0.069 0.227,-0.087C0.218,-0.104 0.219,-0.115 0.232,-0.121C0.243,-0.127 0.253,-0.124 0.261,-0.111C0.264,-0.108 0.266,-0.103 0.267,-0.098C0.275,-0.067 0.271,-0.042 0.256,-0.023C0.24,-0.004 0.216,0.006 0.183,0.006C0.162,0.006 0.143,0.003 0.128,-0.002C0.112,-0.007 0.099,-0.014 0.09,-0.024C0.081,-0.033 0.073,-0.044 0.068,-0.059C0.063,-0.074 0.059,-0.088 0.057,-0.103C0.055,-0.118 0.054,-0.135 0.054,-0.155L0.054,-0.442L0.023,-0.442L0.023,-0.45L0.054,-0.45Z" style="fill-rule:nonzero;stroke:black;stroke-width:0.02px;"/>
                </g>
                <g transform="matrix(132.123,0,0,132.123,423.324,256.37)">
                    <path d="M0.061,-0.625C0.061,-0.641 0.057,-0.655 0.051,-0.666C0.044,-0.677 0.033,-0.683 0.019,-0.686L0.057,-0.686C0.061,-0.686 0.067,-0.686 0.075,-0.687C0.083,-0.687 0.09,-0.688 0.095,-0.689C0.099,-0.69 0.105,-0.691 0.111,-0.693C0.117,-0.695 0.122,-0.697 0.127,-0.7L0.127,-0.367C0.151,-0.427 0.202,-0.457 0.279,-0.457C0.318,-0.457 0.35,-0.446 0.377,-0.424C0.403,-0.402 0.416,-0.369 0.416,-0.326L0.416,-0.061C0.416,-0.045 0.42,-0.032 0.427,-0.021C0.434,-0.01 0.444,-0.003 0.458,-0L0.308,-0C0.322,-0.003 0.333,-0.01 0.34,-0.021C0.347,-0.032 0.35,-0.045 0.35,-0.061L0.35,-0.333C0.35,-0.355 0.346,-0.374 0.338,-0.391C0.33,-0.407 0.32,-0.419 0.307,-0.426C0.294,-0.433 0.279,-0.438 0.264,-0.441C0.248,-0.443 0.232,-0.442 0.216,-0.437C0.2,-0.432 0.185,-0.425 0.172,-0.416C0.159,-0.407 0.148,-0.396 0.14,-0.381C0.131,-0.366 0.127,-0.349 0.127,-0.331L0.127,-0.061C0.127,-0.05 0.129,-0.041 0.132,-0.033C0.135,-0.024 0.139,-0.017 0.146,-0.012C0.152,-0.006 0.16,-0.002 0.169,-0L0.019,-0C0.033,-0.003 0.044,-0.01 0.051,-0.021C0.057,-0.032 0.061,-0.045 0.061,-0.061L0.061,-0.625Z" style="fill-rule:nonzero;stroke:black;stroke-width:0.02px;"/>
                </g>
                <g transform="matrix(132.123,0,0,132.123,527.833,256.37)">
                    <path d="M0.382,-0.708C0.431,-0.708 0.477,-0.699 0.522,-0.68C0.566,-0.661 0.604,-0.636 0.636,-0.604C0.668,-0.572 0.694,-0.534 0.713,-0.49C0.732,-0.445 0.741,-0.399 0.741,-0.35C0.741,-0.285 0.725,-0.225 0.693,-0.17C0.661,-0.115 0.618,-0.071 0.563,-0.04C0.507,-0.008 0.447,0.008 0.382,0.008C0.368,0.008 0.354,0.007 0.34,0.006C0.393,0.049 0.457,0.072 0.533,0.076C0.609,0.079 0.672,0.062 0.721,0.025C0.746,0.006 0.765,0.004 0.779,0.017C0.79,0.028 0.791,0.04 0.783,0.053C0.777,0.062 0.767,0.068 0.753,0.071C0.555,0.108 0.413,0.085 0.328,0.004C0.241,-0.009 0.169,-0.049 0.111,-0.116C0.053,-0.183 0.024,-0.261 0.024,-0.35C0.024,-0.415 0.04,-0.474 0.072,-0.53C0.104,-0.584 0.148,-0.628 0.203,-0.66C0.258,-0.692 0.317,-0.708 0.382,-0.708ZM0.328,-0.005L0.328,-0.004C0.345,-0.001 0.363,-0 0.382,-0C0.431,-0 0.474,-0.01 0.512,-0.029C0.55,-0.048 0.581,-0.074 0.604,-0.107C0.627,-0.14 0.645,-0.177 0.657,-0.218C0.669,-0.259 0.675,-0.303 0.675,-0.35C0.675,-0.397 0.669,-0.441 0.657,-0.482C0.645,-0.523 0.627,-0.56 0.604,-0.593C0.581,-0.626 0.55,-0.652 0.512,-0.671C0.474,-0.69 0.431,-0.7 0.383,-0.7C0.334,-0.7 0.291,-0.69 0.253,-0.671C0.215,-0.652 0.184,-0.626 0.161,-0.593C0.138,-0.56 0.12,-0.523 0.108,-0.482C0.095,-0.441 0.089,-0.397 0.089,-0.35C0.089,-0.293 0.097,-0.241 0.115,-0.194C0.132,-0.146 0.158,-0.105 0.195,-0.07C0.232,-0.035 0.276,-0.014 0.328,-0.005Z" style="fill-rule:nonzero;stroke:black;stroke-width:0.02px;"/>
                </g>
                <g transform="matrix(132.123,0,0,132.123,628.907,256.37)">
                    <path d="M0.452,-0L0.395,-0C0.375,-0 0.362,-0.005 0.356,-0.014C0.349,-0.023 0.345,-0.036 0.344,-0.053L0.344,-0.083C0.32,-0.023 0.269,0.007 0.192,0.007C0.153,0.007 0.121,-0.004 0.095,-0.026C0.068,-0.048 0.055,-0.081 0.055,-0.124L0.055,-0.389C0.055,-0.405 0.051,-0.419 0.045,-0.43C0.038,-0.44 0.027,-0.447 0.013,-0.45L0.163,-0.45C0.154,-0.449 0.146,-0.445 0.14,-0.439C0.133,-0.433 0.129,-0.426 0.126,-0.418C0.123,-0.409 0.121,-0.4 0.121,-0.389L0.121,-0.117C0.121,-0.095 0.125,-0.076 0.133,-0.06C0.141,-0.044 0.152,-0.032 0.165,-0.025C0.178,-0.018 0.192,-0.013 0.208,-0.01C0.223,-0.007 0.239,-0.009 0.255,-0.014C0.271,-0.019 0.286,-0.025 0.299,-0.034C0.312,-0.043 0.322,-0.055 0.331,-0.07C0.34,-0.085 0.344,-0.102 0.344,-0.119L0.344,-0.389C0.344,-0.405 0.341,-0.419 0.334,-0.43C0.327,-0.44 0.316,-0.447 0.302,-0.45L0.452,-0.45C0.438,-0.447 0.428,-0.44 0.421,-0.43C0.413,-0.419 0.41,-0.405 0.41,-0.389L0.41,-0.061C0.41,-0.045 0.413,-0.032 0.421,-0.021C0.428,-0.01 0.438,-0.003 0.452,-0Z" style="fill-rule:nonzero;stroke:black;stroke-width:0.02px;"/>
                </g>
                <g transform="matrix(132.123,0,0,132.123,691.269,256.37)">
                    <path d="M0.258,-0.457C0.298,-0.457 0.335,-0.448 0.37,-0.429C0.404,-0.409 0.432,-0.384 0.453,-0.351L0.41,-0.33L0.095,-0.176C0.1,-0.136 0.112,-0.103 0.131,-0.077C0.15,-0.05 0.171,-0.032 0.196,-0.022C0.221,-0.012 0.247,-0.008 0.276,-0.009C0.305,-0.01 0.332,-0.016 0.357,-0.028C0.382,-0.039 0.405,-0.055 0.425,-0.076C0.445,-0.097 0.459,-0.12 0.467,-0.145L0.473,-0.14C0.462,-0.112 0.446,-0.088 0.427,-0.067C0.408,-0.046 0.387,-0.03 0.364,-0.019C0.341,-0.008 0.317,-0.001 0.291,0.002C0.265,0.005 0.24,0.005 0.215,-0C0.19,-0.005 0.167,-0.013 0.144,-0.026C0.121,-0.038 0.1,-0.053 0.084,-0.072C0.067,-0.091 0.053,-0.113 0.043,-0.14C0.032,-0.167 0.027,-0.195 0.027,-0.226C0.027,-0.268 0.037,-0.307 0.058,-0.342C0.079,-0.377 0.107,-0.405 0.142,-0.426C0.177,-0.447 0.216,-0.457 0.258,-0.457ZM0.094,-0.184L0.408,-0.337C0.383,-0.412 0.333,-0.449 0.258,-0.449C0.228,-0.449 0.202,-0.443 0.18,-0.43C0.157,-0.417 0.14,-0.4 0.128,-0.378C0.115,-0.356 0.106,-0.333 0.101,-0.308C0.095,-0.283 0.092,-0.255 0.092,-0.226C0.092,-0.211 0.093,-0.197 0.094,-0.184Z" style="fill-rule:nonzero;stroke:black;stroke-width:0.02px;"/>
                </g>
                <g transform="matrix(132.123,0,0,132.123,756.142,256.37)">
                    <path d="M0.277,-0.383C0.277,-0.403 0.268,-0.419 0.251,-0.431C0.234,-0.443 0.211,-0.449 0.183,-0.449C0.148,-0.449 0.122,-0.435 0.106,-0.406C0.09,-0.375 0.093,-0.345 0.114,-0.316C0.135,-0.287 0.171,-0.268 0.221,-0.257C0.255,-0.248 0.284,-0.236 0.308,-0.222C0.331,-0.207 0.348,-0.192 0.358,-0.176C0.368,-0.16 0.374,-0.144 0.376,-0.127C0.378,-0.11 0.375,-0.094 0.366,-0.079C0.357,-0.064 0.346,-0.05 0.332,-0.037C0.318,-0.024 0.3,-0.014 0.279,-0.007C0.257,0.001 0.234,0.006 0.209,0.007C0.181,0.008 0.153,0.004 0.126,-0.005C0.099,-0.013 0.075,-0.027 0.055,-0.048C0.035,-0.068 0.024,-0.092 0.023,-0.12C0.022,-0.137 0.029,-0.146 0.044,-0.149C0.056,-0.151 0.064,-0.147 0.068,-0.137C0.069,-0.132 0.069,-0.127 0.067,-0.121C0.054,-0.098 0.054,-0.078 0.067,-0.059C0.08,-0.04 0.099,-0.025 0.125,-0.016C0.151,-0.006 0.179,-0.001 0.209,-0.001C0.249,-0.001 0.282,-0.013 0.307,-0.038C0.332,-0.062 0.336,-0.09 0.319,-0.122C0.302,-0.153 0.262,-0.178 0.197,-0.196C0.168,-0.204 0.143,-0.215 0.122,-0.229C0.101,-0.242 0.086,-0.257 0.077,-0.273C0.067,-0.288 0.06,-0.305 0.057,-0.322C0.054,-0.339 0.055,-0.355 0.061,-0.371C0.066,-0.386 0.074,-0.4 0.085,-0.413C0.096,-0.426 0.11,-0.436 0.127,-0.444C0.144,-0.452 0.163,-0.456 0.183,-0.457C0.211,-0.458 0.237,-0.452 0.26,-0.441C0.282,-0.429 0.297,-0.413 0.302,-0.394C0.306,-0.38 0.303,-0.372 0.294,-0.37C0.286,-0.368 0.281,-0.371 0.278,-0.378C0.277,-0.38 0.277,-0.382 0.277,-0.383Z" style="fill-rule:nonzero;stroke:black;stroke-width:0.02px;"/>
                </g>
                <g transform="matrix(132.123,0,0,132.123,808.33,256.37)">
                    <path d="M0.054,-0.45L0.054,-0.555C0.054,-0.571 0.05,-0.585 0.044,-0.596C0.037,-0.607 0.026,-0.614 0.012,-0.617C0.015,-0.617 0.046,-0.616 0.05,-0.616C0.054,-0.616 0.06,-0.616 0.068,-0.617C0.076,-0.618 0.083,-0.619 0.088,-0.62C0.093,-0.62 0.098,-0.622 0.104,-0.624C0.11,-0.625 0.115,-0.627 0.12,-0.63L0.12,-0.45L0.244,-0.45L0.244,-0.442L0.12,-0.442L0.12,-0.155C0.12,-0.152 0.12,-0.146 0.12,-0.137C0.119,-0.127 0.119,-0.119 0.12,-0.115C0.12,-0.11 0.12,-0.102 0.121,-0.092C0.121,-0.082 0.122,-0.074 0.123,-0.069C0.124,-0.063 0.126,-0.056 0.128,-0.048C0.13,-0.04 0.133,-0.034 0.137,-0.029C0.14,-0.024 0.145,-0.019 0.15,-0.014C0.155,-0.009 0.161,-0.006 0.168,-0.004C0.175,-0.001 0.183,-0 0.192,-0C0.206,-0 0.218,-0.004 0.229,-0.011C0.239,-0.018 0.245,-0.028 0.247,-0.041C0.248,-0.054 0.242,-0.069 0.227,-0.087C0.218,-0.104 0.219,-0.115 0.232,-0.121C0.243,-0.127 0.253,-0.124 0.261,-0.111C0.264,-0.108 0.266,-0.103 0.267,-0.098C0.275,-0.067 0.271,-0.042 0.256,-0.023C0.24,-0.004 0.216,0.006 0.183,0.006C0.162,0.006 0.143,0.003 0.128,-0.002C0.112,-0.007 0.099,-0.014 0.09,-0.024C0.081,-0.033 0.073,-0.044 0.068,-0.059C0.063,-0.074 0.059,-0.088 0.057,-0.103C0.055,-0.118 0.054,-0.135 0.054,-0.155L0.054,-0.442L0.023,-0.442L0.023,-0.45L0.054,-0.45Z" style="fill-rule:nonzero;stroke:black;stroke-width:0.02px;"/>
                </g>
            </g>
            <g transform="matrix(2.26627,0,0,2.26627,1158.79,303.018)">
                <path d="M252.453,87.729C252.453,94.939 246.663,97.091 238.957,97.091C236.365,97.091 235.86,96.848 234.096,96.602L234.096,88.627C234.916,88.796 235.732,88.918 236.609,88.918C241.176,88.918 241.458,86.783 241.458,83.421L241.458,45.107L252.453,45.107L252.453,87.729Z" style="fill:rgb(35,31,32);fill-rule:nonzero;"/>
            </g>
            <g transform="matrix(2.26627,0,0,2.26627,1158.79,303.018)">
                <path d="M273.096,58.924C283.39,58.924 288.502,65.486 288.502,74.357C288.502,83.585 283.598,90.042 273.096,90.042C262.602,90.042 257.696,83.585 257.696,74.357C257.696,65.486 262.804,58.924 273.096,58.924ZM273.096,84.005C275.823,84.005 277.046,81.88 277.046,74.357C277.046,67.491 276.228,64.95 273.096,64.95C269.957,64.95 269.151,67.491 269.151,74.357C269.151,81.88 270.372,84.005 273.096,84.005Z" style="fill:rgb(35,31,32);fill-rule:nonzero;"/>
            </g>
            <g transform="matrix(2.26627,0,0,2.26627,1158.79,303.018)">
                <path d="M293.649,59.625L304.692,59.625L304.692,63.592L304.828,63.592C307.146,60.572 310.62,58.923 314.572,58.923C319.012,58.923 321.877,61.513 321.877,65.606L321.877,89.337L310.828,89.337L310.828,68.327C310.828,66.729 310.206,65.669 308.17,65.669C307.007,65.669 306.06,66.08 305.304,66.893L304.692,67.623L304.692,89.337L293.649,89.337L293.649,59.625Z" style="fill:rgb(35,31,32);fill-rule:nonzero;"/>
            </g>
            <g transform="matrix(2.26627,0,0,2.26627,1158.79,303.018)">
                <path d="M337.666,76.615C337.666,79.209 338.266,83.651 342.643,83.651C345.293,83.651 347.549,81.992 348.227,79.572L355.665,81.932C355.191,83.294 351.768,90.04 341.959,90.04C331.393,90.04 326.622,82.641 326.622,74.418C326.622,66.019 331.676,58.924 341.822,58.924C352.451,58.924 356.143,66.848 356.143,74.597L356.143,76.615L337.666,76.615ZM345.912,70.936C345.842,68.155 345.579,64.95 341.759,64.95C338.617,64.95 337.666,68.155 337.666,70.936L345.912,70.936Z" style="fill:rgb(35,31,32);fill-rule:nonzero;"/>
            </g>
            <g transform="matrix(2.26627,0,0,2.26627,1158.79,303.018)">
                <path d="M379.115,68.735C378.079,66.967 376.653,64.949 373.925,64.949C371.694,64.949 370.659,65.895 370.659,66.847C370.659,71.647 387.435,70.1 387.435,79.923C387.435,86.317 381.843,90.041 373.727,90.041C366.092,90.041 361.122,86.497 359.344,81.644L367.797,79.324C369.089,81.58 370.52,83.651 373.727,83.651C375.775,83.651 377.2,82.765 377.2,81.455C377.2,76.494 360.428,78.441 360.428,68.156C360.428,65.012 363.968,58.923 373.727,58.923C379.242,58.923 384.839,61.164 386.816,66.967L379.115,68.735Z" style="fill:rgb(35,31,32);fill-rule:nonzero;"/>
            </g>
            <g transform="matrix(2.26627,0,0,2.26627,1158.79,303.018)">
                <path d="M76.711,44.797L44.697,44.797L44.697,46.631L50.127,46.631L50.127,87.56L44.564,87.56L44.564,89.399L77.816,89.399L79.052,75.134L77.69,75.134L77.642,75.338C76.905,78.265 76.115,81.126 74.491,83.815C72.252,87.56 70.248,87.56 64.301,87.56L57.44,87.56L57.44,67.795L59.12,67.795C64.963,67.86 66.468,68.868 66.716,76.225L66.726,76.476L68.243,76.476L68.243,57.782L66.677,57.782L66.665,58.023C66.468,61.013 66.356,62.508 65.743,63.607C64.599,65.781 62.175,65.839 59.387,65.894L57.44,65.894L57.44,46.631L62.107,46.631C67.905,46.631 71.093,46.631 73.553,50.808C73.553,50.815 74.894,53.811 74.894,53.811C74.902,53.811 75.89,57.459 75.89,57.459L76.084,57.439L77.235,57.439L76.711,44.797Z" style="fill:rgb(35,31,32);fill-rule:nonzero;"/>
            </g>
            <g transform="matrix(2.26627,0,0,2.26627,1158.79,303.018)">
                <path d="M106.391,87.561L106.391,44.798L95.145,44.798L95.145,46.631L99.885,46.631L99.885,67.022C98.941,65.402 96.657,62.405 92.279,62.405C86.808,62.405 80.982,67.286 80.982,76.341C80.982,86.402 87.964,90.148 92.359,90.148C96.429,90.148 98.639,87.696 99.885,85.308L99.885,89.4L110.518,89.4L110.518,87.561L106.391,87.561ZM92.914,88.247C89.734,88.247 88.901,85.219 88.681,83.421C88.479,81.841 88.413,79.39 88.489,76.154C88.489,74.915 88.518,70.745 88.802,68.879C89.324,64.858 91.853,64.421 92.914,64.421C95.793,64.421 97.461,67.036 98.045,68.161C99.548,70.88 99.76,73.849 99.76,76.399C99.76,85.77 95.282,88.247 92.914,88.247Z" style="fill:rgb(35,31,32);fill-rule:nonzero;"/>
            </g>
            <g transform="matrix(2.26627,0,0,2.26627,1158.79,303.018)">
                <path d="M150.894,63.155L140.678,63.155L140.678,64.982L144.896,64.982C144.702,65.607 140.345,79.822 139.927,81.185C139.48,79.919 137.002,72.922 137.002,72.922L136.514,71.617L133.451,63.155L130.772,63.155C130.772,63.155 125.648,79.533 125.212,80.934C124.795,79.74 123.12,74.86 123.12,74.86L122.1,71.942C122.1,71.934 119.98,66.431 119.427,64.982L123.671,64.982L123.671,63.155L109.31,63.155L109.31,64.982L112.441,64.982C112.571,65.321 122.17,90.147 122.17,90.147L124.479,90.147C124.479,90.147 129.569,73.942 129.99,72.628C130.481,73.919 136.769,90.147 136.769,90.147L139.205,90.147C139.205,90.147 147.014,65.359 147.121,64.982L150.894,64.982L150.894,63.155Z" style="fill:rgb(35,31,32);fill-rule:nonzero;"/>
            </g>
            <g transform="matrix(2.26627,0,0,2.26627,1158.79,303.018)">
                <path d="M174.648,86.583L174.23,86.963C173.82,87.324 173.274,87.804 172.691,87.804C171.564,87.804 171.516,86.725 171.516,84.456L171.516,71.406C171.516,68.969 171.516,66.864 169.695,64.983C168.064,63.41 165.057,62.405 162.024,62.405C155.677,62.405 151.409,65.953 151.409,69.286C151.409,71.103 152.706,72.485 154.416,72.485C156.347,72.485 157.546,70.95 157.546,69.528C157.546,68.6 157.07,67.938 156.686,67.398L156.244,66.532C156.244,65.839 158.281,64.185 161.092,64.185C164.889,64.185 165.066,66.726 165.196,68.587C165.196,68.587 165.202,74.163 165.202,74.634C163.84,74.655 160.09,74.761 156.904,75.717C152.299,77.151 149.667,80.09 149.667,83.764C149.667,87.583 152.601,90.147 156.97,90.147C160.52,90.147 163.44,88.381 165.196,85.364C165.337,86.481 165.603,87.818 166.92,88.9C167.903,89.691 169.277,90.147 170.703,90.147C173.428,90.147 174.924,88.652 175.56,88.005L175.728,87.834L174.648,86.583ZM165.202,78.274C165.066,81.605 164.9,83.57 163.037,85.387C162.662,85.727 161.489,86.755 159.723,86.755C158.022,86.755 156.053,85.678 156.053,82.641C156.053,77.595 160.96,76.409 165.202,76.314L165.202,78.274Z" style="fill:rgb(35,31,32);fill-rule:nonzero;"/>
            </g>
            <g transform="matrix(2.26627,0,0,2.26627,1158.79,303.018)">
                <path d="M188.553,66.135C188.551,66.142 187.936,67.39 187.47,68.342L187.47,63.154L176.715,63.154L176.715,64.984L181.018,64.984L181.018,87.56L176.773,87.56L176.773,89.401L191.522,89.401L191.522,87.56L187.47,87.56L187.47,80.218C187.536,76.265 187.59,72.854 189.33,68.696C190.577,65.716 191.694,65.672 191.699,65.672C192.033,65.672 192.055,65.672 192.176,66.894C192.392,68.933 193.585,70.035 195.375,70.035C197.407,70.035 198.887,68.564 198.887,66.533C198.887,64.249 197.067,62.59 194.566,62.59C192.249,62.59 190.167,63.818 188.553,66.135Z" style="fill:rgb(35,31,32);fill-rule:nonzero;"/>
            </g>
            <g transform="matrix(2.26627,0,0,2.26627,1158.79,303.018)">
                <path d="M225.087,87.561L225.087,44.798L213.832,44.798L213.832,46.631L218.573,46.631L218.573,67.013C217.628,65.402 215.345,62.405 210.967,62.405C205.491,62.405 199.674,67.286 199.674,76.341C199.674,86.402 206.643,90.148 211.032,90.148C215.108,90.148 217.319,87.696 218.573,85.308L218.573,89.4L229.193,89.4L229.193,87.561L225.087,87.561ZM211.59,88.247C208.608,88.247 207.643,85.627 207.37,83.421C207.102,81.441 207.124,78.374 207.174,76.154C207.174,74.908 207.206,70.745 207.492,68.879C207.997,64.858 210.525,64.421 211.59,64.421C214.47,64.421 216.139,67.036 216.729,68.161C218.242,70.88 218.449,73.849 218.449,76.399C218.449,85.77 213.965,88.247 211.59,88.247Z" style="fill:rgb(35,31,32);fill-rule:nonzero;"/>
            </g>
            <g transform="matrix(2.26627,0,0,2.26627,1158.79,303.018)">
                <path d="M385.459,47.988C385.459,50.648 387.628,52.81 390.269,52.81C392.935,52.81 395.092,50.648 395.092,47.988C395.092,45.332 392.935,43.174 390.269,43.174C387.628,43.174 385.459,45.332 385.459,47.988ZM385.999,47.988C385.999,45.626 387.908,43.695 390.269,43.695C392.646,43.695 394.562,45.626 394.562,47.988C394.562,50.359 392.646,52.282 390.269,52.282C387.908,52.282 385.999,50.359 385.999,47.988Z" style="fill:rgb(35,31,32);fill-rule:nonzero;"/>
            </g>
            <g transform="matrix(2.26627,0,0,2.26627,1158.79,303.018)">
                <path d="M389.888,45.654C391.174,45.654 391.405,45.741 391.677,46.007C391.99,46.301 392.121,46.734 392.121,47.101C392.121,47.896 391.622,48.106 391.212,48.278L392.224,50.447L391.258,50.447L390.452,48.482L389.559,48.482L389.559,50.447L388.696,50.447L388.674,45.654L389.888,45.654ZM389.51,46.317L389.51,47.711L390.331,47.711C390.803,47.711 391.31,47.478 391.31,46.983C391.31,46.34 390.522,46.317 390.331,46.317L389.51,46.317Z" style="fill:rgb(35,31,32);fill-rule:nonzero;"/>
            </g>
        </g>
    </g>
</svg>
